<svg width="128" height="128" xmlns="http://www.w3.org/2000/svg" xml:space="preserve"><g stroke="null"><path fill="#FFCA28" d="M6.392 54.671c.842-.78 15.97-2.16 17.902-2.43-2.843-.6-7.252-1.67-9.838-3.14-4.745-2.7-6.192-9.61-2.05-10.38 2.476-.46 9.917.08 13.404.35-3.606-1.73-4.607-5.65-4.428-7.83.227-2.79 1.803-3.77 3.527-3.24 2.823.86 9.461 2.35 12.73 3.1 0 0-2-2.36-1.812-4.78.188-2.35 1.991-3.12 5.806-1.95 7.024 2.3 35.875 8.89 41.512 8.67 16.764-.64 32.239-.4 33.339-.07 1.09.33 2.496 1.15 3.438 3.31 1.238 2.85 2.368 7.23 2.605 13.12.516 11.99-1.842 13.05-1.842 13.05s-9.452 8.48-15.704 13.06c-10.294 7.54-14.9 16.95-17.378 22-1.03 2.11-1.605 3.89-2.556 5.05-1.724 2.09-4.696 2.02-6.707.49-2.745-2.1-2.854-4.12-2.834-8-.01-4.71 6.678-20.59 7.53-23.07.694-2.03-3.378-2.36-5.31-2.99-5.915-1.92-20.529-3.63-35.875-3.24-11.295.28-22.124.81-27.722-.34-6.3-1.29-7.856-3.78-8.421-6.06-.446-1.89-.555-3.6.684-4.68z"/><path fill="#EDA600" d="M7.24 54.671c1.15 8.99 11.73 8.33 18.547 8.45 6.5.02 14.415-.41 21.3-.42 13.861.02 30.258 2.45 33.726 3.62 3.468 1.16 7.371 2.06 5.875 6.65-.574 1.76-6.133 13.47-8.055 20.46-1.307 5.31.04 9.12.04 9.12-.733-.56-2.06-1.17-2.635-5.54-.932-7.15 6.628-21.54 7.836-25.02.694-2.03-9.045-5.56-41.185-6.23-6.004-.13-11.88.37-16.902.37-7.43.12-18.121-.55-19.24-6.77-.367-1.54-.734-3.62.673-4.73.01 0 .01.02.02.04zm23.758-25.7-.04-.01c.01.01.02.01.04.01zm9.194-.01c2.27.92 16.258 2.6 25.225 4.32 4.468.86 6.093 2.16 6.093 2.16-14.95-1.16-24.7-2.23-33.032-4.34-1.04-.26-2.596-2.82-1.506-5.98.169.33.09 2.58 3.22 3.84zm-13.543 10.11c-4.607-2.65-5.033-5.41-4.22-8.83 0 0 2.317 4.97 7.786 5.99 1.823.34 19.498 1.38 29.257 2.56 3.765.45 5.558 1.51 5.558 1.51zm-4.499 9.39c1.933.56 5.252.39 7.223.03s21.222-2.67 27.692-3.05c3.765-.22 5.092.46 5.092.46s-17.249 4.41-37.034 6.36c0 0-7.6-.8-11.909-3.94-2.764-2.01-3.329-6.57-1.952-8.22 0 0 .09 2.13 1.724 3.85 2.774 2.9 7.233 3.95 9.165 4.51z"/></g></svg>