<svg width="128" height="128" xmlns="http://www.w3.org/2000/svg" xml:space="preserve"><g stroke="null"><path fill="#FFCA28" d="M37.584 30.031c-4.113.058-7.66 4.712-8.372 7.787-.72 3.075-.662 8.773 4.151 10.155 0 0-.42.095-.751.127-5.196.554-6.813 5.845-6.813 9.614 0 3.464 1.77 10.021 7.036 9.595l-.045 1.101c-3.285.93-4.431 6.883-3.215 11.365.827 3.043 4.724 7.876 10.047 6.278.445-.134.923-.287 1.413-.452-3.075 3.304-3.534 6.857-2.031 10.06 1.598 3.418 4.654 5.252 9.257 4.03.185-.052.37-.109.554-.16 8.755.917 21.743.739 30.3-2.585 19.368-7.519 21.17-20.73 21.411-28.841 1.064-35.412-24.46-38.475-27.842-38.373-3.298.102-8.716-.013-11.657 1.33-.007 0-21.062-1.063-23.443-1.03z"/><path fill="#FFB300" d="M73.907 84.079c1.197-1.98 2.515-4.221 3.807-6.138 3.113-4.603 7.456-7.76 12.09-10.83-7.97-.865-14.503-6.067-17.89-13.096-.433-.91-1.522-3.865-1.897-4.794-.382-1.216-.84-2.114-2.49-1.662-2.152.401-4.08 1.464-3.814 3.827a26 26 0 0 1-1.286 8.015c-1.388 5.4-6.914 7.723-11.778 6.1 0 0-.885 1.623.12 2.546 2.904 2.668 2.286 4.871 2.12 6.87-.177 1.948-1.253 4.164-3.22 4.788 0 0 .362 1.216.445 1.426 8.767-.44 11.982 9.194 5.106 14.676.319.452.987 1.184 1.528 1.076 7.067-1.363 13.472-6.622 17.159-12.804z"/><g fill="#EDA600"><path d="M48.23 46.381c-2.019-.248-4.903-.07-7.176-.127-4.132-.102-7.118.726-8.379 1.216-.579.223-.56.681-.56.681 1.108.503 14.287 1.318 16.12 1.496v-3.266zm10.371 20.425c.866 1.26 1.496 3.45.758 6.195-.484 1.802-2.076 3.406-4.323 4.234-3.298 1.216-9.099 3.24-11.079 4.558-1.776 1.185-3.737 3.343-4.304 4.533-.923 1.949-1.107 3.445-1.107 3.445.49-.866 3.043-3.712 5.227-4.788 3.323-1.643 8.117-3.75 12.797-4.489 2.426-.382 3.98-.725 5.189.344 1.146 1.006 2.381 3.254 2.337 6.1-.032 1.865-1.503 3.546-3.795 5.405-3.852 3.107-13.058 7.545-13.058 7.545s1.7.07 3.909-.325c2.21-.395 5.57-1.382 8.824-3.228 2.101-1.19 6.564-3.935 7.411-8.328.847-4.386-.681-6.367-1.75-8.105-1.204-1.948-3.592-2.903-4.324-2.96 0 0 2.668-2.012 2.076-6.692-.446-3.495-2.712-6.258-2.687-6.271zm-9.315-1.433-.407-3.33c-7.462.745-12.358 3.241-14.446 4.203s-3.267 3.196-3.267 3.196c.051-.013 9.589-2.878 18.12-4.069zM36.718 30.07c-.369.076-.35.61.026.655 3.024.37 10.505.287 14.484 2.178 1.235.585 1.14 2.234 1.834 2.47.821.28 10.569-5.418 9.168-5.565-14.02-1.464-22.163-.407-25.512.261zm40.455 49.489c-.293.241-.72.184-.968-.102-7.66-8.736-10.651-16.643-12.689-31.172l2.642-.732c2.776 15.146 4.342 20.92 11.155 31.12a.67.67 0 0 1-.14.886zm14.72-12.409a.783.783 0 0 1-.834.694c-12.333-.924-21.214-7.787-23.691-20.737l3.113-.7c3.26 14.503 14.052 19.221 20.724 19.883a.77.77 0 0 1 .688.86z"/><path d="M102.2 64.495c0 16.61-8.773 23.162-8.773 23.162s6.297-8.29 6.456-22.436c.121-10.518-3.291-20.342-10.836-27.365-6.042-5.622-11.645-6.634-15.86-6.92-5.984-.402-13.701 1.687-18.75 5.271-4.368 3.1-4.94 5.113-5.444 8.22-.502 3.107.822 7.703.128 15.344-.268 2.96.325 5.316 4.597 5.341 2.158.013 4.998-1.006 6.647-4.775 1.617-3.686 1.247-7.494.815-10.594-.109-.796-.032-2.267 2.368-3.336.318-.14 7.608-2.68 9.06-3.356s2.095-.095 2.12.745c.026.84-1.146 1.802-2.025 2.413s-4.01 2.241-6.01 2.96c-1.91.688-1.668 1.465-1.719 2.363-.114 2.254.382 7.78-2.929 12.218-2.355 3.164-4.316 4.164-8.308 4.52-4.03.357-5.393-.891-6.724-2.693-1.056-1.432-1.324-3.037-1.21-5.112.16-2.7.42-5.998.236-7.742-.184-1.745-.528-7.551-.05-9.627.477-2.07 1.871-6.22 6.895-9.684 5.418-3.737 11.345-5.482 18.826-5.482 6.96 0 13.86 2.108 19.457 7.462 6.08 5.807 11.034 12.078 11.034 29.103z"/></g></g></svg>