<svg width="128" height="128" xmlns="http://www.w3.org/2000/svg" xml:space="preserve"><g fill="#FFCA28"><path d="M11.316 26.967c-.6 4.05 3.42 7.07 9.5 9.66 4.36 1.86 32.01 12.08 32.01 12.08.91.32.78 1.84-.17 1.99-7.71 1.19-25.25 4.34-35.42 6.24-10.68 2-13.52 5.64-13.07 9.31.78 6.32 10.55 5.46 17.55 4.8s28.82-2.19 44.51-4.37c2.79-.39 5.78-32.09 5.78-32.09-6.19-.01-32.66-7.74-44.29-10.61-7.7-1.89-15.54-2.78-16.4 2.99"/><path d="M121.636 69.237c-.03 8.89-1.92 22.58-17.93 31.31-9.81 5.35-22.13 7.03-33.14 5.92-7.18-.72-12.86-3.07-14.95-7.48-2.98-6.29 1-10.92 1-10.92s-9.92 1.61-12.34-5.95c-3.12-9.72 7.12-12.55 7.12-12.55l14.62-34.27s17.53.01 27.79 1.12c28.27 3.04 27.86 23.93 27.83 32.82"/></g><path fill="#FFB300" d="m65.396 83.057 3.98 1.57c6.71-.84 11.02 7.17 8.34 11.22 1.97.42 5.92.86 11.05-3.14 3.38-2.63 6.59-8.17 8.38-12.06 2.14-4.66 4.22-8.07 8.37-9.12-5.92-.29-11.66-3.28-15.3-7.97-.99-1.27-1.83-2.67-2.93-3.84l-3.25 1.06c1.59 5.79.05 15.94-5.4 18.44-1.31.6-8.78 2.35-8.94-3.82-.28-10.8-4.77-18.78-4.77-18.78-1.58 6.52-4.44 8.79-5.06 9.18-.45.28-.26 3.28-.01 3.73 0 0 4.04.34 5.81 5.64 1.49 4.44-.19 7.23-.27 7.89"/><g fill="#EDA600"><path d="m68.936 68.957-.67-3.91c-16.41 0-21.56 7.52-21.56 7.52 5.56-2 14.18-3.7 22.23-3.61m8.78 10.83c-4.24.49-14.45 2.76-18.66 5.98s-4.31 6.94-4.31 6.94c10.47-8.34 15.75-8.74 21.34-8.83 2.81-.05 6.29.55 7.28 3.82.65 2.16.95 4.98-11.55 11.58-1.55.82-2.4 2.02-2.83 2.99-.26.59.3 1.22.91 1.01 9.44-3.29 17.63-7.94 17.64-13.93 0-.9-.36-1.8-.47-2.83-.7-6.64-9.35-6.73-9.35-6.73m-28.69-27.05c-4.75 1.23-15.27 3.41-27.79 5.09-8.37 1.12-12.28 2.14-14.55 3.94s-2.51 4.63-2.51 4.48c-1.29-7.14 4.84-9.84 12.21-11.1 12.42-2.12 34.83-5.29 36.97-5.9-.01 0 1.06 2.09-4.33 3.49"/><path d="M11.886 25.277c3.4-2.48 9.52-1.39 13.03-.56 2.95.7 26.77 7.87 37.09 10.58 1.96.52 4.27 1.18 7.69 1.3 3.43.12 10.87.37 10.87.37-2.58 1.19-5.63 3.64-7.76 5.26-14.44 11.16-5.84 14.91-5.11 31.6.09 12.56 17.65 9.98 18.67-5.78 0 0 .51-4.22-.2-5.86 3.48 8.12 12.65 11.9 26.05 10.87 1.91-.66-18.63-2.75-23.26-14.37-.32-.79 1.13-1.45 3.13-3.59.58-.62 1.72-2.33 1.86-3.4s-1-.52-1.17-.37c-2.09 1.83-8.72 5.87-9.53 6.25-.91.42-1.6 1.87-1.35 3.11 3.6 17.64-7.33 17.52-8.82 16.73-1.5-.79-1.47-2.05-1.54-3.75-.34-7.95-2-12.71-2.91-15.61-2.38-5.65 4.38-12.08 11.92-16.73 2.01-1.29 4.94-2.89 12.41-3.2 7.27-.3 26.19 3.61 27.87 27.95.79 11.39-1.82 17.19-5.27 23.34-1.35 2.4-3.2 4.4-3.55 4.78s-.26.58.08.37 11.87-7.09 11.91-27.3c.02-11.5-3.84-20.77-11.42-26.47-5.29-3.98-10.21-6.15-19.24-6.8-2.95-.21-15.62-.83-21.93-.98-2.64-.06-6.7-.98-6.7-.98-2.3-.36-33.78-8.78-33.78-8.78s-4.68-1.34-8.65-1.88c-8.17-1.14-10.39 3.9-10.39 3.9"/></g></svg>