<svg xmlns="http://www.w3.org/2000/svg" width="1024" height="1024" viewBox="0 0 1024 1024">
  <defs>
    <style>
      .cls-1 {
        fill: #fff;
      }

      .cls-2, .cls-3 {
        fill: #333;
      }

      .cls-3 {
        fill-rule: evenodd;
      }
    </style>
  </defs>
  <g id="icon">
    <rect class="cls-1" width="1024.03" height="1024.03" rx="64" ry="64"/>
    <rect id="Rectangle_1_copy" data-name="Rectangle 1 copy" class="cls-2" x="73.12" y="73.125" width="877.79" height="877.719" rx="48" ry="48"/>
    <rect id="Rectangle_1_copy_2" data-name="Rectangle 1 copy 2" class="cls-1" x="109.69" y="109.688" width="804.62" height="804.593" rx="32" ry="32"/>
    <path id="dy" class="cls-3" d="M3657.38,250.38H3580.1V395.586q-35.745-40.7-84.7-40.7-53.355,0-88.28,38.639T3372.2,506.415q0,72.6,35.88,113.167,35.9,40.567,86.22,40.564,24.75,0,49.09-12.238t42.21-37.264v42.9h71.78V250.38Zm-187.69,185.5q18.555-21.864,46.06-21.864,28.32,0,46.48,22.139t18.15,72.465q0,45.107-18.7,67.79t-45.38,22.688q-33.555,0-52.25-30.251-12.93-20.9-12.93-67.652Q3451.12,457.74,3469.69,435.875Zm338.4,218.5q-6.885,24.474-19.8,40.289t-39.88,15.814a171.168,171.168,0,0,1-32.73-3.576l6.88,60.5a204.793,204.793,0,0,0,43.72,4.675q22,0,39.47-4.675t29.43-13.063a84.743,84.743,0,0,0,21.17-21.864q9.21-13.477,19.39-39.051l18.42-50.877,103.13-281.061h-80.02l-68.21,207.358-69.85-207.358h-82.23Z" transform="translate(-3172)"/>
  </g>
</svg>
